# xmcd
#
# Track frame offsets:
#	150
#	3016
#	16220
#	31787
#	64779
#	76949
#	89460
#	105325
#	133313
#	159693
#	171736
#
# Disc length: 2546 seconds
#
# Revision: 0
# Processed by: cddbd v1.5.1PL0 Copyright (c) Steve Scherf et al.
# Submitted via: EasyCDDAExtractor 8.0.1.1
#
DISCID=8009f00b
DTITLE=Otis Redding - Good To Me_ Recorded Live At The Whiskey A Go Go Volume 
DTITLE=2
DYEAR=1900
DGENRE=Soul/Blues, Oldies
TTITLE0=Introduction
TTITLE1=I'm Depending On You
TTITLE2=Your One And Only Man
TTITLE3=Chained And Bound
TTITLE4=Ol' Man Trouble
TTITLE5=Pain In My Heart
TTITLE6=These Arms Of Mine
TTITLE7=I Can't Turn You Loose
TTITLE8=I've Been Loving You Too Long
TTITLE9=Security
TTITLE10=A Hard Day's Night
EXTD=
EXTT0=
EXTT1=
EXTT2=
EXTT3=
EXTT4=
EXTT5=
EXTT6=
EXTT7=
EXTT8=
EXTT9=
EXTT10=
PLAYORDER=
